<svg xmlns="http://www.w3.org/2000/svg" fill="none" preserveAspectRatio="xMidYMid"
    viewBox="0 0 196 50" display="block" aria-label="PayPal" class="RULId">
    <g clip-path="url(#a)">
        <path fill="#253B80" fill-rule="evenodd"
            d="M62.3 11.2H73c3.6 0 6.3 1 7.9 2.9 1.4 1.7 1.8 4.2 1.3 7.3-1 7.1-5.1 10.8-12.3 10.8h-3.4c-.7 0-1.4.5-1.5 1.3l-1 7.8c0 .8-.7 1.4-1.4 1.4h-5.2a1 1 0 0 1-.9-1.1l4.4-29c.1-.9.7-1.4 1.5-1.4Zm5.6 14.7c2.9 0 5.8 0 6.4-4.1.2-1.4 0-2.5-.5-3.2-1-1.1-2.8-1.1-4.7-1.1h-.8a1 1 0 0 0-.9.8l-1.1 7.6zm32.3-4.2h5.2c.6 0 1 .5.9 1l-2.8 18.6c-.1.8-.7 1.4-1.5 1.4h-4.6c-.6 0-1-.6-1-1.1l.3-1.5s-2.6 3-7.2 3c-2.7 0-5-.8-6.5-2.7a10.6 10.6 0 0 1-2-8.3c1-6.4 6-11 11.6-11 2.5 0 5 .6 6.2 2.3l.3.6.2-1.5a1 1 0 0 1 1-.8Zm-7.8 15.7c3 0 5.3-2 5.8-5.2.2-1.5 0-2.8-.9-3.8-.8-1-2-1.5-3.4-1.5-3 0-5.4 2.2-5.8 5.2-.3 1.5 0 2.9.8 3.8.7 1 2 1.5 3.5 1.5"
            clip-rule="evenodd" />
        <path fill="#253B80"
            d="M133 21.7h-5.2c-.5 0-1 .2-1.2.7l-7.2 11-3-10.6c-.3-.7-.9-1.1-1.5-1.1h-5.1c-.7 0-1 .6-.9 1.2l5.7 17.6-5.3 8c-.5.6 0 1.5.7 1.5h5.2c.5 0 1-.3 1.2-.7l17.3-26.2c.5-.6 0-1.4-.7-1.4" />
        <path fill="#179BD7" fill-rule="evenodd"
            d="M139.4 11.2h10.8c3.7 0 6.4 1 8 2.9 1.3 1.7 1.8 4.2 1.3 7.3-1 7.1-5.2 10.8-12.3 10.8h-3.4c-.8 0-1.4.5-1.5 1.3l-1.3 8.2c0 .6-.5 1-1 1h-5.6c-.5 0-1-.6-.8-1.1l4.3-29c.1-.9.8-1.4 1.5-1.4m5.7 14.7c2.8 0 5.8 0 6.4-4.1.2-1.4 0-2.5-.5-3.2-1-1.1-2.8-1.1-4.8-1.1h-.7a1 1 0 0 0-1 .8l-1 7.6zm32.3-4.2h5.2c.5 0 1 .5.9 1l-2.8 18.6c-.2.8-.8 1.4-1.5 1.4h-4.7c-.6 0-1-.6-.9-1.1l.2-1.5s-2.5 3-7.1 3c-2.7 0-5-.8-6.5-2.7a10.6 10.6 0 0 1-2-8.3c1-6.4 5.9-11 11.6-11 2.5 0 5 .6 6.1 2.3l.4.6.2-1.5a1 1 0 0 1 .9-.8m-7.9 15.7c3 0 5.3-2 5.8-5.2.3-1.5 0-2.8-.8-3.8s-2-1.5-3.5-1.5c-3 0-5.3 2.2-5.8 5.2-.2 1.5 0 2.9.8 3.8.8 1 2 1.5 3.5 1.5"
            clip-rule="evenodd" />
        <path fill="#179BD7"
            d="m188.7 12-4.5 29.6c0 .5.4 1 1 1h4.4c.7 0 1.4-.5 1.5-1.3l4.3-29c.1-.6-.3-1.1-.8-1.1h-5a1 1 0 0 0-1 .8Z" />
        <path fill="#253B80"
            d="m11.5 48.3.8-5.5H1.7L7.7 2a.5.5 0 0 1 .3-.3.5.5 0 0 1 .3-.1H23c5 0 8.3 1 10.1 3.2A6 6 0 0 1 34.7 8a12 12 0 0 1 0 4.3v1.2l.9.6c.7.4 1.2.8 1.7 1.3a7 7 0 0 1 1.3 3.2 19.4 19.4 0 0 1-2 10 10.7 10.7 0 0 1-6.8 5.1q-2.1.6-4.8.6h-1.2c-.8 0-1.6.3-2.2.9a3.7 3.7 0 0 0-1.2 2.2l-.1.5-1.5 9.7v.3l-.1.2a.2.2 0 0 1-.2.1h-7.1Z" />
        <path fill="#179BD7"
            d="m36.5 12.7-.2 1c-2 10.4-8.7 14-17.2 14h-4.4c-1 0-1.9.9-2 2l-2.3 14.8-.6 4.1c-.1.8.4 1.4 1.1 1.4h7.7c1 0 1.7-.7 1.9-1.6v-.5l1.5-9.6v-.5a2 2 0 0 1 2-1.7h1c7.5 0 13.4-3.2 15.1-12.4.7-3.8.4-7-1.5-9.3a7.4 7.4 0 0 0-2.1-1.7" />
        <path fill="#222D65"
            d="M34.4 11.8a15 15 0 0 0-1.9-.4 23 23 0 0 0-3.8-.3H17c-.3 0-.5 0-.8.2a2 2 0 0 0-1 1.5l-2.5 16.4v.4a2 2 0 0 1 2-1.8h4.4c8.5 0 15.2-3.7 17.2-14.2l.1-.9a10 10 0 0 0-1.6-.7 15 15 0 0 0-.4-.2" />
        <path fill="#253B80"
            d="M15.2 12.8a2 2 0 0 1 1-1.5l.8-.2h11.7c1.3 0 2.6.1 3.8.3a15 15 0 0 1 2.3.6l1.7.7c.5-3.9 0-6.5-2-9C32.1 1.2 28.1 0 23 0H8.3c-1 0-2 .8-2.1 1.9L0 42.9c-.1.8.5 1.6 1.3 1.6h9.1l2.3-15.3z" />
    </g>
    <defs>
        <clipPath id="a">
            <path fill="#fff" d="M0 0h195.5v50H0z" />
        </clipPath>
    </defs>
</svg>