<svg xmlns="http://www.w3.org/2000/svg" width="71" height="23" fill="#000000"
    role="presentation">
    <path
        d="M16.941 21.806h1.28l-.178.638H16.09l.16-.338V19.52l-.16-.338h.852v2.623Zm1.667.638h1.904v-.638h-1.209v-.716h.936l.17-.614h-1.105v-.658h1.209v-.634h-1.904v3.26Zm4.069-3.261 1.286 3.26h-.721l-.248-.634h-1.28l-.243.635h-.709l1.14-2.846-.211-.415h.986Zm.087 2.002-.398-1.097-.417 1.096h.815Zm2.876-.554-.284.587h1.136a.776.776 0 0 1-.297.456.895.895 0 0 1-.552.172.99.99 0 0 1-.387-.084 1.021 1.021 0 0 1-.594-.955c.003-.142.026-.273.08-.402a1.008 1.008 0 0 1 .521-.543.92.92 0 0 1 .384-.074c.187 0 .354.04.498.125a.858.858 0 0 1 .333.365l.628-.304a1.481 1.481 0 0 0-.581-.621 1.693 1.693 0 0 0-.869-.227c-.23 0-.45.04-.654.129-.207.087-.384.209-.538.361a1.735 1.735 0 0 0-.364.534 1.62 1.62 0 0 0-.137.655 1.688 1.688 0 0 0 1.013 1.563c.204.087.42.132.658.134.23 0 .444-.04.638-.121.197-.081.364-.192.505-.337.143-.142.253-.311.333-.507.06-.142.098-.294.114-.45.007-.06.017-.306.007-.455h-1.59l-.001-.001Zm3.872.48c0 .22-.05.391-.15.52-.101.128-.251.192-.442.192-.19 0-.344-.064-.444-.193-.1-.128-.15-.3-.15-.52v-1.927h-.702v1.965c0 .202.03.392.09.557.06.168.144.31.254.428.113.118.247.21.407.274.16.064.341.095.545.095.203 0 .38-.03.541-.095.16-.064.294-.156.408-.274.11-.118.194-.26.253-.428.06-.165.09-.355.09-.557v-1.965h-.7v1.927Zm1.263 1.333h1.904v-.638h-1.21v-.716h.936l.17-.614H31.47v-.658h1.21v-.634h-1.904v3.26Zm4.37-1.63a.76.76 0 0 1-.752.762.762.762 0 0 1-.755-.763.76.76 0 0 1 .755-.763c.417 0 .751.341.751.763Zm-.352 0a.405.405 0 0 0-.4-.41.408.408 0 0 0-.405.41.403.403 0 1 0 .805 0Zm.632.732h.354v-.496h.37l.087-.321h-.457v-.317h.524v-.331h-.878v1.465Zm2.565-2.363h-.852l.16.337v2.586l-.16.338h1.955l.177-.638h-1.28v-2.623Zm1.667 3.261h1.904v-.638h-1.209v-.716h.936l.17-.614h-1.105v-.658h1.209v-.634h-1.904v3.26Zm3.848-1.813-.284.587h1.136a.776.776 0 0 1-.297.456.895.895 0 0 1-.551.172.989.989 0 0 1-.388-.084 1.022 1.022 0 0 1-.594-.955c.003-.142.026-.273.08-.402a1.005 1.005 0 0 1 .521-.543.92.92 0 0 1 .384-.074c.187 0 .354.04.498.125a.856.856 0 0 1 .334.365l.627-.304a1.481 1.481 0 0 0-.58-.621 1.692 1.692 0 0 0-.87-.227c-.23 0-.45.04-.654.129-.207.087-.384.209-.537.361a1.733 1.733 0 0 0-.365.534c-.09.205-.137.425-.137.655a1.686 1.686 0 0 0 1.013 1.563c.204.087.421.132.658.134.23 0 .444-.04.638-.121.197-.081.364-.192.505-.337.143-.142.253-.311.333-.507.06-.142.097-.294.114-.45.007-.06.016-.306.007-.455h-1.59v-.001Zm2.021 1.813h1.905v-.638h-1.21v-.716h.936l.17-.614h-1.105v-.658h1.209v-.634h-1.904v3.26Zm4.61-1.114-1.493-2.147h-.865l.154.304v2.957h.668v-2.12l1.51 2.12h.698v-3.261h-.672v2.147Zm3.872-1.151a1.633 1.633 0 0 1 0 1.283c-.087.199-.204.367-.354.516-.147.145-.32.26-.521.341-.2.084-.411.125-.635.125h-1.09v-3.26h1.093c.15 0 .434.05.635.134.197.084.37.199.52.344.148.145.265.317.352.516Zm-.581.641a.99.99 0 0 0-.27-.688.932.932 0 0 0-.674-.283H52.1v1.94h.38a.923.923 0 0 0 .672-.283.973.973 0 0 0 .274-.685Zm2.452-.31-.434-.085c-.197-.037-.305-.149-.305-.314 0-.223.227-.354.445-.354.073 0 .448.02.52.391l.602-.293c-.087-.267-.354-.73-1.126-.73-.625 0-1.132.463-1.132 1.034 0 .483.32.834.855.945l.435.088c.217.043.344.168.344.33 0 .214-.177.342-.461.345-.348.003-.628-.256-.672-.513l-.578.324c.134.436.541.824 1.243.824.444 0 .715-.172.868-.317a.993.993 0 0 0 .305-.702c0-.49-.348-.861-.91-.973ZM5.623.605l4.591 13.19h-2.21c-.963-2.086-1.805-2.833-2.983-2.833-1.177 0-2.02.747-2.974 2.833H0L4.591.606h1.032Zm1.212 10.036-1.797-5.31-1.831 5.31a5.26 5.26 0 0 1 1.831-.356c.533 0 1.135.104 1.797.356Zm9.415 3.154h-2.202V.606h2.442c3.422 0 5.193 1.965 5.193 4.78 0 1.633-.757 3.058-2.012 3.944l2.408 4.466H19.55l-1.874-3.615a5.293 5.293 0 0 1-1.187.122h-.24v3.493Zm0-5.578h.481c1.65 0 2.7-1.06 2.7-2.728 0-1.668-1.032-2.763-2.7-2.763h-.481v5.49Zm11.607-1.043c0-2.746 1.788-4.483 4.35-4.483.326 0 .636.034.945.104L33.255.59a6.21 6.21 0 0 0-.962-.087c-3.87 0-6.706 2.833-6.706 6.777 0 3.945 2.716 6.621 6.43 6.621.465 0 .912-.017 1.36-.139v-2.207a3.911 3.911 0 0 1-1.101.157c-2.648 0-4.42-1.72-4.42-4.535v-.001Zm10.661 6.62h-2.046L41.062.607h1.032l4.592 13.19h-2.21c-.963-2.086-1.806-2.833-2.983-2.833-1.178 0-2.02.747-2.975 2.833Zm1.16-3.153a5.26 5.26 0 0 1 1.832-.356c.532 0 1.135.104 1.797.356l-1.797-5.31-1.831 5.31Zm16.913-2.303L51.552.606H50.52v13.19h2.047V5.993l5.142 7.803h.928V.606h-2.046V8.34Zm9.578 3.441V8.426h3.782V6.428H66.17V2.622h4.505V.606h-6.707v13.19H71V11.78h-4.832Z"
    ></path>
</svg>