<svg width="24" height="24" viewBox="0 0 25 24" fill="#000000"
    xmlns="http://www.w3.org/2000/svg" role="presentation">
    <path fill-rule="evenodd" clip-rule="evenodd"
        d="M6.5 7.91489C6.5 6.85733 7.35733 6 8.41489 6H12.608V7.78723H8.41489C8.34439 7.78723 8.28723 7.84439 8.28723 7.91489V16.0851C8.28723 16.1556 8.34439 16.2128 8.41489 16.2128H12.8626C12.8964 16.2128 12.9289 16.1993 12.9528 16.1754L15.449 13.6792H12.392V11.892H17.6064C18.0999 11.892 18.5 12.2921 18.5 12.7856V18H16.7128V14.943L14.2166 17.4391C13.8575 17.7983 13.3704 18 12.8626 18H8.41489C7.35733 18 6.5 17.1427 6.5 16.0851V7.91489Z"
        fill="currentColor"></path>
</svg>