<svg version="1.1" id="Layer_1" xmlns="http://www.w3.org/2000/svg" x="0px" y="0px"
    viewBox="0 0 2000 500" width="80" height="25" fill="#ffffff" role="presentation">
    <g>
        <path
            d="M1329.39,97.34c-0.88-6.42-2.92-11.98-6.14-16.65c-4.1-6.14-9.35-10.44-15.78-12.93   c-6.43-2.48-15.63-3.87-27.61-4.16h-26.74h-63.99v371.93h61.8V297.99h27.17c12.56-0.29,21.98-1.46,28.27-3.51   c6.28-2.04,11.32-5.84,15.12-11.4c3.79-4.97,6.28-10.74,7.45-17.31c1.17-6.57,1.75-18.04,1.75-34.41v-97.21   C1330.71,116.05,1330.27,103.77,1329.39,97.34z M1268.89,249.78h-17.95V116.87h17.95V249.78z"></path>
        <polygon
            points="920.72,435.53 1016.7,435.53 1016.7,381.88 982.52,381.88 982.52,249.4 1016.7,249.4 1016.7,202.01    982.52,202.01 982.52,116.87 1016.7,116.87 1016.7,63.6 920.72,63.6  "></polygon>
        <path
            d="M1161.97,76.74c-4.68-6.14-10.59-10.15-17.75-12.05c-7.16-1.9-20.09-2.85-38.79-2.85   c-21.04,0-35.65,0.73-43.83,2.19c-8.18,1.46-14.76,4.38-19.72,8.77c-7.89,7.01-11.83,21.33-11.83,42.95v73.98   c0,18.12,1.97,30.9,5.92,38.35c3.94,7.45,13.07,15.27,27.39,23.45c0,0,32.14,17.83,33.31,18.41c5.26,2.92,9.32,5.41,10.64,7.45   c1.32,2.05,2.12,5.85,2.41,11.4c0,0,0.44,7.06,0.44,19.27s0,73.83,0,73.83h-18.75V276.02h-61.36v91.14   c0,17.53,0.29,28.2,0.88,31.99c1.16,10.52,4.38,18.56,9.64,24.11c4.67,5.55,10.59,9.14,17.75,10.74c7.16,1.6,19.94,2.41,38.35,2.41   c22.79,0,38.2-0.94,46.24-2.85c8.03-1.9,14.53-6.21,19.5-12.93c3.51-4.67,5.84-9.86,7.01-15.56c1.16-5.7,1.75-14.83,1.75-27.39   v-86.7c0-19.57-2.27-33.16-6.79-40.76c-4.53-7.59-15.42-16.22-32.65-25.86l-26.3-14.46c-5.85-3.21-9.64-6.06-11.4-8.55   c-1.75-2.48-2.63-6.06-2.63-10.74v-73.74h18.75v85.13h61.02v-79.24c0-13.73-0.59-23.67-1.75-29.8   C1168.25,86.82,1165.76,81.42,1161.97,76.74z"></path>
        <path
            d="M1922.5,76.74c-4.68-6.14-10.59-10.15-17.75-12.05c-7.16-1.9-20.09-2.85-38.79-2.85   c-21.04,0-35.65,0.73-43.83,2.19c-8.18,1.46-14.76,4.38-19.72,8.77c-7.89,7.01-11.83,21.33-11.83,42.95v73.98   c0,18.12,1.97,30.9,5.92,38.35c3.94,7.45,13.07,15.27,27.39,23.45c0,0,32.14,17.83,33.31,18.41c5.26,2.92,9.32,5.41,10.64,7.45   c1.31,2.05,2.12,5.85,2.41,11.4c0,0,0.44,7.06,0.44,19.27s0,73.83,0,73.83h-18.75V276.02h-61.36v91.14   c0,17.53,0.29,28.2,0.88,31.99c1.16,10.52,4.38,18.56,9.64,24.11c4.67,5.55,10.59,9.14,17.75,10.74c7.16,1.6,19.94,2.41,38.35,2.41   c22.79,0,38.2-0.94,46.24-2.85c8.03-1.9,14.53-6.21,19.5-12.93c3.51-4.67,5.84-9.86,7.01-15.56c1.16-5.7,1.75-14.83,1.75-27.39   v-86.7c0-19.57-2.27-33.16-6.79-40.76c-4.53-7.59-15.42-16.22-32.65-25.86l-26.3-14.46c-5.85-3.21-9.64-6.06-11.4-8.55   c-1.75-2.48-2.63-6.06-2.63-10.74v-73.74h18.75v85.13h61.02v-79.24c0-13.73-0.59-23.67-1.75-29.8   C1928.78,86.82,1926.29,81.42,1922.5,76.74z"></path>
        <path
            d="M1476.41,73.68c-4.97-4.97-10.96-8.11-17.97-9.42c-7.01-1.31-20.45-1.97-40.32-1.97   c-17.83,0-30.54,0.44-38.13,1.31c-13.44,1.75-22.79,8.18-28.05,19.28c-3.22,6.14-4.82,19.58-4.82,40.32v66.97v117.46v59.08v16.22   c0,14.03,1.6,24.76,4.82,32.21c3.21,7.45,8.62,12.93,16.22,16.44c6.72,3.22,22.35,4.82,46.9,4.82c23.37,0,38.71-1.02,46.02-3.07   c12.85-2.92,21.04-11.68,24.54-26.3c1.46-5.26,2.19-64.93,2.19-99.41V190.17c0-27.76-0.29-84.65-0.88-91.08   C1486.05,88.87,1482.55,80.4,1476.41,73.68z M1426.43,381.88h-17.93V116.87h17.93V381.88z"></path>
        <path
            d="M1593.42,64.03l-21.92-0.44h-65.74v371.93h61.8l0.02-159.51h17.93l0.02,159.51h61.36v-77.96   c0-17.24-0.37-68.79-1.1-75.08c-0.73-6.28-2.56-11.9-5.48-16.87c-4.09-7.59-11.11-13-21.04-16.22   c10.81-2.92,18.11-8.61,21.91-17.09c3.79-8.47,5.7-22.93,5.7-43.39v-68.35c0-22.2-3.58-37.1-10.74-44.71   C1628.99,68.27,1614.74,64.33,1593.42,64.03z M1585.51,222.74h-17.95l0,0V116.87h17.95V222.74z"></path>
        <polygon
            points="1657.12,116.87 1688.24,116.87 1688.24,435.53 1750.03,435.53 1750.03,116.87 1780.28,116.87    1780.28,63.6 1657.12,63.6  "></polygon>
        <g>
            <path
                d="M312.07,73.68c-4.97-4.97-10.96-8.11-17.97-9.42c-7.01-1.31-20.46-1.97-40.32-1.97    c-17.83,0-30.54,0.44-38.13,1.31c-13.44,1.75-22.79,8.18-28.05,19.28c-3.22,6.14-4.82,19.58-4.82,40.32v66.97v117.46v59.08v16.22    c0,14.03,1.6,24.76,4.82,32.21c3.21,7.45,8.62,12.93,16.22,16.44c6.72,3.22,22.35,4.82,46.9,4.82c23.37,0,38.71-1.02,46.02-3.07    c12.85-2.92,21.04-11.68,24.54-26.3c1.46-5.26,2.19-64.93,2.19-99.41V190.17c0-27.76-0.29-84.65-0.88-91.08    C321.72,88.87,318.21,80.4,312.07,73.68z M261.67,381.88h-17.53V116.87h17.53V381.88z"></path>
            <path
                d="M130.09,63.6H68.3v348.24c0,12.88,10.44,23.32,23.32,23.32h77.87v-53.28h-39.39V63.6z"></path>
            <path
                d="M403.2,63.6h-61.8v348.24c0,12.88,10.44,23.32,23.32,23.32h77.87v-53.28H403.2V63.6z"></path>
            <path
                d="M549.15,116.87h105.87V63.6h-82.11c-42.55,0-77.04,34.49-77.04,77.04v82.11h53.28V116.87z M643.98,249.38    l-94.83,94.83v-68.19h-53.28v159.14h159.14v-53.28h-68.19l94.83-94.83L643.98,249.38z M814.16,381.88H708.3v53.28h82.11    c42.55,0,77.04-34.49,77.04-77.04v-82.11h-53.28V381.88z M708.3,63.6v53.28h68.19l-94.83,94.83l37.67,37.67l94.83-94.83v68.19    h53.28V63.6H708.3z"></path>
        </g>
    </g>
</svg>