<svg xmlns="http://www.w3.org/2000/svg" width="30" height="30" fill="#ffffff"
    role="presentation" viewBox="0 0 24 24">
    <title>Buy It Now</title>
    <path
        d="M23.8,7.7c-.1-.2-.3-.4-.6-.4h-1.4c-.5,0-1.1.4-1.3,1s.1,1,.6,1h.2l-4.3,6.4h-8.4l.9-6.4h0c.6,0,1.1-.4,1.3-1s0-1-.6-1h-.6l.2-1.7c0-.2,0-.5-.2-.6l-3.4-2.9c-.4-.3-1-.2-1.5.3-.5.5-.6,1.1-.2,1.3l3.1,2.8-1.4,10.5c0,.5.2.8.7.8h9.9c.4,0,.9-.3,1.2-.7l5.5-8.4c.1-.3.2-.6.1-.9h0s-.1-.2-.1-.2Z"></path>
    <path d="M3.1,9.2h3.4l.3-1.9h-3c-.5,0-1.1.4-1.3,1s.1,1,.6,1Z"></path>
    <path d="M6.3,10.7H1.4c-.6,0-1.1.4-1.3,1s0,1,.6,1h5.3l.3-1.9Z"></path>
    <path d="M2.8,14.2c-.5,0-1.1.4-1.3,1s.1,1,.6,1h3.5l.3-1.9s-3.1,0-3.1,0Z"></path>
    <path d="M7.6,18.6c-1,0-2,.8-2.4,1.7s.1,1.7,1.1,1.7,2-.8,2.4-1.7-.1-1.7-1.1-1.7Z"></path>
    <path d="M15.9,18.6c-1,0-2,.8-2.4,1.7s.1,1.7,1.1,1.7,2-.8,2.4-1.7-.1-1.7-1.1-1.7Z"></path>
    <path
        d="M20.3,7.4c0-.4-.3-.6-.7-.6h-2.2l2.2-2.7c.4-.5.3-1,0-1.2s-.9-.2-1.3.2l-6.4,5c-.4.3-.5.7-.6,1.1,0,.4.3.6.7.6h2.1l-2.2,2.8c-.3.4-.3,1,0,1.2.2,0,.3.2.4.2.3,0,.6,0,.9-.3l6.5-5.2c.4-.3.5-.7.6-1.1Z"></path>
</svg>