<svg xmlns="http://www.w3.org/2000/svg" width="22" height="21" fill="currentColor"
    role="presentation" class="add-to-cart-panel_panel-action__icon__UzYJv">
    <path
        d="M1.555.168a1 1 0 0 0-1.11 1.664L4.73 4.688 7.204 15.58a1 1 0 0 0 .976.778h10.256a1 1 0 0 0 .96-.718l2.563-8.718A1 1 0 0 0 21 5.641h-9.743a1 1 0 1 0 0 2h8.406l-.769 2.615h-7.637a1 1 0 0 0 0 2h7.05l-.62 2.103h-8.71L6.592 3.855a1 1 0 0 0-.42-.61L1.554.168ZM8.949 21a1.795 1.795 0 1 0 0-3.59 1.795 1.795 0 0 0 0 3.59ZM17.667 21a1.795 1.795 0 1 0 0-3.59 1.795 1.795 0 0 0 0 3.59Z"></path>
</svg>