<svg xmlns="http://www.w3.org/2000/svg" width="75" height="29" fill="#ffffff"
    role="presentation" viewBox="0 0 75 29">
    <path
        d="M52.698 15.646v13.121h-2.826l-6.106-8.526v8.526h-2.708V16.873l-.618-1.227h3.5l6.05 8.644v-8.643h2.708Z"></path>
    <path
        d="M24.56 28.995a6.625 6.625 0 0 0 2.582-.484 6.183 6.183 0 0 0 2.048-1.358 6.291 6.291 0 0 0 1.352-2.05c.236-.576.39-1.182.455-1.8.05-.61.057-1.222.024-1.833h-6.435l-1.145 2.371h4.591a3.118 3.118 0 0 1-1.201 1.828c-.624.463-1.37.693-2.24.689a3.738 3.738 0 0 1-1.563-.335 4.035 4.035 0 0 1-2.103-2.217 4.407 4.407 0 0 1 .015-3.236c.198-.49.488-.935.855-1.314.36-.37.789-.667 1.262-.872a3.778 3.778 0 0 1 1.557-.31c.704-.01 1.397.169 2.01.517a3.435 3.435 0 0 1 1.354 1.465l2.54-1.222a5.865 5.865 0 0 0-2.346-2.498c-1.03-.604-2.206-.91-3.526-.916a6.799 6.799 0 0 0-4.827 1.966 7.028 7.028 0 0 0-1.473 2.153 6.502 6.502 0 0 0-.552 2.635 6.597 6.597 0 0 0 .515 2.639 6.96 6.96 0 0 0 1.434 2.167 6.737 6.737 0 0 0 4.815 2.017l.001-.002Z"></path>
    <path d="M3.447 15.646H0l.65 1.358v10.41L0 28.77h7.91l.718-2.567H3.447V15.646Z"></path>
    <path
        d="M9.58 28.77h7.71v-2.567h-4.903v-2.878h3.791l.686-2.468h-4.477v-2.654h4.902v-2.556H9.58V28.77Z"></path>
    <path
        d="M32.004 28.77h7.71v-2.567H34.81v-2.878h3.792l.686-2.468H34.81v-2.654h4.903v-2.556h-7.71V28.77Z"></path>
    <path
        d="M36.937 13.577a6.614 6.614 0 0 0 2.583-.483 6.168 6.168 0 0 0 2.047-1.358 6.273 6.273 0 0 0 1.353-2.05c.236-.575.39-1.181.454-1.8.05-.61.058-1.221.024-1.832h-6.435l-1.144 2.37h4.591a3.12 3.12 0 0 1-1.201 1.827c-.623.465-1.37.695-2.24.69a3.778 3.778 0 0 1-1.564-.335 4.046 4.046 0 0 1-2.103-2.218 4.41 4.41 0 0 1 .016-3.235c.198-.49.488-.935.854-1.314.36-.37.789-.667 1.262-.873a3.82 3.82 0 0 1 1.558-.31c.704-.01 1.397.17 2.01.517a3.433 3.433 0 0 1 1.352 1.466l2.541-1.221a5.866 5.866 0 0 0-2.345-2.5C39.515.313 38.34.008 37.024 0a6.647 6.647 0 0 0-2.649.518 6.774 6.774 0 0 0-2.178 1.449 7.002 7.002 0 0 0-1.473 2.152 6.479 6.479 0 0 0-.554 2.634 6.596 6.596 0 0 0 .516 2.639 6.99 6.99 0 0 0 1.433 2.173 6.731 6.731 0 0 0 4.816 2.016l.002-.004Z"></path>
    <path d="M3.447.229H0l.65 1.357v10.411L0 13.352h7.91l.718-2.568H3.447V.23Z"></path>
    <path
        d="M9.58 13.352h7.71v-2.567h-4.903V7.906h3.791l.686-2.467h-4.477V2.785h4.902V.229H9.58v13.123Z"></path>
    <path
        d="M56.088 13.352h7.71v-2.567h-4.904V7.906h3.792l.685-2.467h-4.477V2.785h4.903V.229h-7.71v13.123Z"></path>
    <path
        d="M25.935.229h-3.988l.843 1.676-4.604 11.448h2.868l.983-2.56h5.186l1 2.56h2.923L25.936.229ZM22.99 8.284l1.684-4.413 1.618 4.41-3.302.003Z"></path>
    <path d="M71.123 3.838V9.74h1.444V7.745h1.492l.36-1.3h-1.852v-1.27h2.119V3.838h-3.563Z"></path>
    <path
        d="M67.553 3.719a3.05 3.05 0 0 0-1.7.514 3.066 3.066 0 0 0-1.305 3.15c.118.595.409 1.142.836 1.572a3.054 3.054 0 0 0 3.332.667 3.06 3.06 0 0 0 1.373-1.13 3.077 3.077 0 0 0-.378-3.872 3.053 3.053 0 0 0-2.158-.901Zm0 4.713a1.634 1.634 0 0 1-1.518-1.012 1.65 1.65 0 0 1 .352-1.794 1.636 1.636 0 0 1 2.799 1.161c0 .436-.171.853-.478 1.162a1.633 1.633 0 0 1-1.155.483Z"></path>
    <path
        d="M49.621 13.58a5.95 5.95 0 0 1-2.201-.385 4.495 4.495 0 0 1-1.642-1.095 4.89 4.89 0 0 1-1.03-1.723 6.574 6.574 0 0 1-.365-2.246V.229h2.836V7.98c0 .887.206 1.586.618 2.097.413.512 1.01.767 1.791.767.784 0 1.381-.255 1.791-.767.41-.51.617-1.21.62-2.097V.229h2.836V8.13a6.601 6.601 0 0 1-.364 2.246A4.892 4.892 0 0 1 53.48 12.1a4.509 4.509 0 0 1-1.643 1.095 5.951 5.951 0 0 1-2.216.384Z"></path>
    <path
        d="m71.326 20.988-1.766-.34c-.794-.154-1.23-.601-1.23-1.26 0-.898.916-1.435 1.804-1.435.302 0 1.805.079 2.114 1.584l2.433-1.192c-.36-1.072-1.433-2.927-4.566-2.927-2.525 0-4.58 1.863-4.58 4.15 0 1.94 1.293 3.363 3.457 3.805l1.766.358c.873.176 1.393.673 1.393 1.332 0 .852-.721 1.369-1.875 1.38-1.403.015-2.539-1.035-2.714-2.063l-2.337 1.309C65.76 27.441 67.413 29 70.257 29c1.79 0 2.896-.694 3.506-1.276A3.913 3.913 0 0 0 75 24.904c-.003-1.976-1.406-3.476-3.674-3.916Z"></path>
    <path
        d="M64.45 19.654a6.475 6.475 0 0 0-1.425-2.076 6.69 6.69 0 0 0-2.113-1.385c-.807-.336-1.96-.547-2.57-.547h-4.42v13.122h4.412a6.689 6.689 0 0 0 4.685-1.882 6.462 6.462 0 0 0 1.426-2.07 6.643 6.643 0 0 0 0-5.158l.004-.005Zm-2.648 4.11c-.19.46-.465.878-.811 1.233-.35.353-.764.634-1.22.828-.477.208-.99.314-1.51.31h-1.546v-7.812h1.547a3.75 3.75 0 0 1 1.508.31 3.753 3.753 0 0 1 2.028 2.076 4.06 4.06 0 0 1 0 3.056l.005-.001Z"></path>
</svg>