<svg xmlns="http://www.w3.org/2000/svg" width="100%" height="100%" viewBox="0 0 24 24" fill="none"
    role="presentation">
    <path fill="#000"
        d="m13.384 17.846-.752.748a.885.885 0 0 1-.636.26.915.915 0 0 1-.636-.26l-6.083-6.07a4.295 4.295 0 0 1 0-6.113A4.4 4.4 0 0 1 8.393 5.14c1.01 0 2.021.336 2.835 1.016.096.08.682.654.773.744.095-.095.686-.669.788-.754 1.723-1.423 4.322-1.333 5.933.271a4.294 4.294 0 0 1 0 6.113l-4.005 3.988-1.354-1.338 3.981-3.964c.97-.967.97-2.518 0-3.485a2.481 2.481 0 0 0-3.475 0l-.007.007-1.867 1.84-1.864-1.853a2.447 2.447 0 0 0-1.738-.707 2.45 2.45 0 0 0-1.737 4.192l6.728 6.636Z"></path>
    <path fill="#F7F7F7"
        d="M17.345 7.732c.97.966.97 2.517 0 3.484L12.04 16.52l-5.384-5.309a2.45 2.45 0 0 1 1.737-4.192c.639 0 1.265.236 1.738.707l1.864 1.852 1.867-1.84.007-.007a2.481 2.481 0 0 1 3.476 0Z"></path>
</svg>