<svg xmlns="http://www.w3.org/2000/svg" width="75" height="29" fill="#ffffff"
    role="presentation" viewBox="0 0 75 29">
    <path
        d="m75 3.152-11.692.004v3.307l-2.951.854V3.156H57.93V13.17h2.426V9.71l2.95-.854v4.315h2.427V7.314l-1-1.87h3.93v10.385l2.425-.702V5.444h2.685L75 3.152Z"></path>
    <path
        d="m53.022 7.247-1.06 1.984h2.532C54.35 10.25 53.66 11 52.276 11c-1.435 0-2.296-.961-2.296-2.852 0-1.736.775-2.822 2.297-2.822.933 0 1.551.37 1.955 1.081l2.236-.647C55.923 3.837 54.172 3 52.133 3c-2.296 0-4.593 1.674-4.593 5.177 0 3.504 2.21 5.147 4.737 5.147 3.158 0 4.852-2.697 4.478-6.077h-3.733Z"></path>
    <path
        d="m30.418 6.959 2.466-3.805h2.124V13.17h-2.297V7.52l-2.297 3.417-2.296-3.417v5.65H25.82V3.154h2.154l2.444 3.805Z"></path>
    <path fill-rule="evenodd"
        d="M24.912 13.172h-2.425l-.57-2.096-3.343.965-.308 1.131h-2.383l2.65-8.845-.626-1.17h4.005l3 10.015Zm-4.536-7.749-1.16 4.258 2.148-.63-.988-3.628Z"
        clip-rule="evenodd"></path>
    <path d="M43.911 3.154h2.426V13.17H43.91V3.154Z"></path>
    <path d="M42.603 5.446V3.154h-5.829V13.17H39.2V9.82h1.877l1.225-2.292H39.2V5.446h3.403Z"></path>
    <path
        d="M11.653 9.154v1.722h3.69l-.773 2.292H9.227V7.387l1.039-1.943h-3.93v10.385l-2.425-.702V5.444H1.226L0 3.152h15.314v2.292h-3.661v1.534h2.973v2.176h-2.973Z"></path>
    <path
        d="M61.94 19.515c.29.064.692.153 1.373.314 1.492.342 2.44 1.055 2.44 2.699 0 2.356-1.866 3.472-3.876 3.472-2.563 0-3.798-1.19-4.21-2.935l2.287-.661c.201.868.861 1.488 1.895 1.488 1.148 0 1.464-.496 1.464-1.054 0-.465-.373-.713-1.177-.899l-1.522-.341c-1.665-.372-2.497-1.333-2.497-2.822 0-2.077 1.55-3.1 3.646-3.1 2.325 0 3.645 1.116 3.846 2.418l-2.244.65c-.216-.572-.677-.99-1.602-.99-.718 0-1.264.309-1.264.805 0 .465.316.682.92.837.157.039.309.072.52.12Z"></path>
    <path
        d="M54.64 22.102c-.3.975-.878 1.572-2.115 1.572-1.436 0-2.325-1.085-2.325-2.852 0-1.798.86-2.822 2.325-2.822.899 0 1.616.476 1.932 1.345l2.288-.662c-.603-2.201-2.297-3.007-4.278-3.007-2.47 0-4.737 1.674-4.737 5.177 0 3.504 2.153 5.147 4.68 5.147 2.095 0 3.874-.9 4.449-3.255l-2.22-.643Z"></path>
    <path
        d="M30.34 23.674c1.238 0 1.816-.597 2.115-1.572l2.22.643C34.1 25.1 32.32 26 30.225 26c-2.526 0-4.68-1.643-4.68-5.147 0-3.503 2.269-5.177 4.738-5.177 1.98 0 3.675.806 4.277 3.007l-2.288.662C31.957 18.475 31.24 18 30.341 18c-1.464 0-2.325 1.024-2.325 2.822 0 1.767.89 2.852 2.325 2.852Z"></path>
    <path d="M46.337 15.83H43.91v10.015h2.426V15.83Z"></path>
    <path d="M34.485 15.83h8.534l-1.225 2.292h-1.83v7.723H37.54v-7.723h-1.83l-1.224-2.293Z"></path>
    <path d="M17.269 15.83H8.734l1.225 2.292h1.83v7.723h2.426v-7.723h1.829l1.225-2.293Z"></path>
    <path fill-rule="evenodd"
        d="M25.422 25.845h-2.425l-.57-2.095-3.343.964-.308 1.131h-2.383L19.043 17l-.626-1.17h4.005l3 10.015Zm-4.535-7.749-1.16 4.258 2.148-.63-.988-3.628Z"
        clip-rule="evenodd"></path>
    <path d="M65.753 15.943h.205v.61h.13v-.61h.204v-.114h-.54v.114Z"></path>
    <path
        d="m66.618 15.83.184.512.182-.513h.188v.725h-.122v-.567h-.004l-.2.567h-.092l-.2-.567h-.003v.567h-.122v-.725h.19Z"></path>
</svg>