<svg xmlns="http://www.w3.org/2000/svg" width="75" height="12" fill="currentColor" role="img"
    viewBox="0 0 75 12">
    <title>VALORANT</title>
    <path fill-rule="evenodd" clip-rule="evenodd"
        d="M23.777 5.73c0-3.143 2.459-5.69 5.493-5.69 3.032 0 5.492 2.547 5.492 5.69 0 3.141-2.459 5.69-5.492 5.69-3.034 0-5.493-2.548-5.493-5.69Zm1.964 0c0 2.074 1.58 3.756 3.529 3.756 1.948 0 3.527-1.682 3.528-3.756 0-2.074-1.58-3.756-3.528-3.756-1.95 0-3.529 1.682-3.529 3.756Zm40.99-3.486h2.743l.01 8.7a.2.2 0 0 0 .196.204l1.571-.001a.2.2 0 0 0 .197-.203l-.01-8.7h3.44c.102 0 .159-.121.096-.204L73.796.513A.514.514 0 0 0 73.39.31h-6.658a.2.2 0 0 0-.196.203V2.04a.2.2 0 0 0 .196.204ZM2.139 10.947 10.187.516c.064-.082.007-.205-.095-.205H8.079a.515.515 0 0 0-.406.202l-5.709 7.4V.514A.2.2 0 0 0 1.768.31H.196A.2.2 0 0 0 0 .515v10.43a.2.2 0 0 0 .196.202h1.537a.51.51 0 0 0 .406-.2Zm8.005-3.588-2.768 3.588a.51.51 0 0 1-.404.202H4.959c-.102 0-.159-.123-.095-.205L12.754.716c.198-.256.497-.405.813-.405h1.288a.2.2 0 0 1 .196.204v10.43a.2.2 0 0 1-.196.204h-1.537a.515.515 0 0 1-.406-.202l-2.768-3.588Zm1.09-1.63 1.853 2.402V3.326L11.233 5.73ZM49.044.513a.513.513 0 0 0-.407-.202h-1.537a.2.2 0 0 0-.197.203v10.43a.2.2 0 0 0 .197.203h1.536a.515.515 0 0 0 .407-.202l2.768-3.588 2.767 3.588a.513.513 0 0 0 .406.202h2.013c.1.001.156-.122.094-.203L49.044.513Zm1.676 5.215-1.854 2.403V3.326l1.854 2.402ZM63.206.514v7.398l-5.709-7.4a.514.514 0 0 0-.405-.201h-1.54a.2.2 0 0 0-.195.203v5.027c0 .121.04.24.114.335l1.634 2.119c.072.092.216.04.216-.078V3.543l5.71 7.402a.513.513 0 0 0 .406.202h1.537a.2.2 0 0 0 .196-.203V.514a.2.2 0 0 0-.197-.203h-1.571a.2.2 0 0 0-.196.203Zm-18.428 0v2.261c0 .123-.04.24-.114.336l-2.476 3.204 3.57 4.628c.064.083.008.204-.093.204h-2.013a.515.515 0 0 1-.407-.202l-3.474-4.503a.21.21 0 0 1 0-.254l3.042-3.942h-4.505v8.698a.2.2 0 0 1-.196.203H36.54a.2.2 0 0 1-.196-.203V.514a.2.2 0 0 1 .196-.203h8.042a.2.2 0 0 1 .196.204ZM17.485 11.15h4.662a.515.515 0 0 0 .406-.202l1.178-1.527c.064-.082.007-.205-.095-.205h-4.384v-8.7a.2.2 0 0 0-.196-.204h-1.571a.2.2 0 0 0-.197.204v10.43a.2.2 0 0 0 .197.204Zm55.552-.905h.32v.903h.125v-.903h.318v-.11h-.763v.11Zm1.138-.11h-.202v1.015h.126v-.897h.004l.348.897h.07l.348-.897h.004v.897H75v-1.016h-.202l-.307.823-.316-.823Z"></path>
</svg>