<svg xmlns="http://www.w3.org/2000/svg" preserveAspectRatio="xMidYMid" viewBox="0 0 126 50"
    width="75.75" height="24"
    fill="none">
    <g clip-path="url(#a)" fill-rule="evenodd" clip-rule="evenodd">
        <path
            d="M59.62 7.342v12.636h7.793q2.785 0 4.605-1.872c1.247-1.244 1.872-2.73 1.872-4.447q0-2.525-1.872-4.401-1.82-1.918-4.605-1.919H59.62zm0 17.083v14.657h-4.654V2.895h12.348q4.7 0 7.99 3.132 3.343 3.133 3.343 7.632c0 3.066-1.115 5.629-3.343 7.68-2.157 2.059-4.824 3.083-7.993 3.083h-7.69zm23.73 7.078q0 1.818 1.545 3.033c1.027.804 2.234 1.21 3.615 1.21 1.959 0 3.7-.724 5.236-2.17 1.538-1.451 2.302-3.153 2.302-5.106q-2.176-1.718-6.072-1.718c-1.887 0-3.466.458-4.728 1.368-1.266.91-1.897 2.034-1.897 3.383Zm6.023-17.996q5.16.002 8.148 2.754 2.982 2.758 2.984 7.558v15.263h-4.454v-3.435h-.2q-2.887 4.244-7.694 4.246-4.096-.002-6.855-2.427-2.757-2.427-2.758-6.065 0-3.843 2.91-6.116 2.909-2.274 7.767-2.274c2.76 0 5.042.504 6.827 1.516v-1.064q0-2.426-1.922-4.116a6.6 6.6 0 0 0-4.502-1.693c-2.6 0-4.655 1.092-6.174 3.287l-4.098-2.581q3.392-4.852 10.02-4.853m36.683.81L110.519 50h-4.806l5.769-12.484-10.219-23.198h5.06l7.387 17.791h.099l7.186-17.794z"
            fill="#fff" />
        <path
            d="M40.81 21.267c0-1.464-.123-2.878-.359-4.228H20.818v8.01h11.247a9.62 9.62 0 0 1-4.16 6.319v5.199h6.713c3.93-3.62 6.192-8.975 6.192-15.3"
            fill="#4285F4" />
        <path
            d="M20.819 41.585c5.62 0 10.348-1.841 13.799-5.016l-6.713-5.203c-1.866 1.257-4.27 1.99-7.087 1.99-5.428 0-10.039-3.658-11.685-8.584H2.219v5.357a20.82 20.82 0 0 0 18.6 11.46"
            fill="#34A853" />
        <path
            d="M9.133 24.771a12.5 12.5 0 0 1 0-7.96v-5.356H2.219A20.7 20.7 0 0 0 0 20.788c0 3.358.805 6.53 2.219 9.337l6.914-5.357z"
            fill="#FABB05" />
        <path
            d="M20.818 8.229c3.07 0 5.818 1.052 7.985 3.12v.002l5.942-5.935C31.142 2.06 26.438 0 20.82 0A20.82 20.82 0 0 0 2.222 11.457l6.914 5.357c1.646-4.927 6.257-8.585 11.685-8.585"
            fill="#E94235" />
    </g>
    <defs>
        <clipPath id="a">
            <path fill="#fff" d="M0 0h126v50H0z" />
        </clipPath>
    </defs>
</svg>