<svg width="18" height="18" viewBox="0 0 24 24" data-name="Flat Line"
    xmlns="http://www.w3.org/2000/svg" class="icon flat-line">
    <path d="M10.25 4.19 2.63 18a2 2 0 0 0 1.75 3h15.24a2 2 0 0 0 1.75-3L13.75 4.19a2 2 0 0 0-3.5 0"
        style="fill:#ffeedb;stroke-width:2" />
    <path
        style="fill:none;stroke:#8f6900;stroke-linecap:round;stroke-linejoin:round;stroke-width:2.5"
        d="M12.05 17h-.1" />
    <path
        d="M12 9v4m-1.75-8.81L2.63 18a2 2 0 0 0 1.75 3h15.24a2 2 0 0 0 1.75-3L13.75 4.19a2 2 0 0 0-3.5 0"
        style="fill:none;stroke:#8f6900;stroke-linecap:round;stroke-linejoin:round;stroke-width:2" />
</svg>