<svg role="img" viewBox="0 0 24 32" xmlns="http://www.w3.org/2000/svg" aria-label="apple" class="sc-hLseeU idnFbI sc-iAEyYk jPWCSn"><title id="social">apple</title><path d="M23.25 20.765C23.25 20.8551 22.7096 22.7465 21.3586 24.7279C20.1877 26.4392 19.0169 28.0604 17.1255 28.1505C15.2341 28.1505 14.6937 27.0697 12.5321 27.0697C10.3705 27.0697 9.74001 28.1505 8.02874 28.2405C6.22741 28.3306 4.78634 26.4392 3.70554 24.7279C1.27375 21.2153 -0.527587 14.9107 1.90421 10.6775C3.07508 8.606 5.23668 7.255 7.57841 7.255C9.37974 7.255 11.091 8.42586 12.1718 8.42586C13.2526 8.42586 15.3241 6.9848 17.4857 7.16493C18.3864 7.16493 20.9083 7.5252 22.5295 9.86693C22.4394 9.957 19.4672 11.6683 19.5573 15.0908C19.5573 19.3239 23.1599 20.765 23.25 20.765ZM16.0447 4.91326C17.0354 3.7424 17.6659 2.1212 17.4857 0.5C16.1347 0.590067 14.4235 1.40067 13.4327 2.57153C12.5321 3.56227 11.7215 5.27353 11.9917 6.80466C13.5228 6.9848 15.0539 6.08413 16.0447 4.91326Z" fill="white"></path></svg>