<svg role="img" viewBox="0 0 25 19" xmlns="http://www.w3.org/2000/svg" aria-label="playstation" class="sc-hLseeU idnFbI sc-iAEyYk jPWCSn"><title id="social">playstation</title><path d="M9.37418 0V17.0614L13.2844 18.2883V3.97592C13.2844 3.30712 13.5881 2.85971 14.0786 3.01192C14.714 3.18719 14.8401 3.80526 14.8401 4.47406V10.1889C17.2788 11.3512 19.1942 10.1889 19.1942 7.1216C19.1942 3.97592 18.073 2.57835 14.7607 1.45753C13.4573 1.02396 11.0373 0.304421 9.37418 0Z" fill="white"></path><path d="M14.0272 15.793L20.3154 13.5837C21.0301 13.33 21.1376 12.9748 20.5583 12.7857C19.979 12.5966 18.9325 12.652 18.2177 12.9057L14.0272 14.3632V12.0385L14.2701 11.9555C14.2701 11.9555 15.4801 11.5358 17.1806 11.3467C18.8858 11.1622 20.9694 11.3743 22.6045 11.9832C24.4498 12.5597 24.6554 13.4038 24.1882 13.9896C23.7211 14.5754 22.5718 14.9905 22.5718 14.9905L14.0272 18.0209V15.793Z" fill="white"></path><path d="M2.20319 15.5578C0.311138 15.0319 -0.0065405 13.9342 0.857732 13.3023C1.6566 12.7165 3.01608 12.2783 3.01608 12.2783L8.62217 10.3134V12.5551L4.59045 13.9803C3.87568 14.234 3.76823 14.5891 4.34752 14.7782C4.92682 14.9627 5.97796 14.912 6.69274 14.6583L8.62684 13.9665V15.9729C8.50538 15.9959 8.3699 16.0144 8.23909 16.0374C6.29564 16.3465 4.2354 16.2173 2.20319 15.5578Z" fill="white"></path></svg>