<svg role="img" viewBox="0 0 22 22" xmlns="http://www.w3.org/2000/svg" aria-label="xbox" class="sc-hLseeU idnFbI sc-iAEyYk jPWCSn"><title id="social">xbox</title><path d="M9.93695 21.6234C8.29366 21.4662 6.62994 20.8763 5.20074 19.9444C4.00311 19.1634 3.73266 18.8424 3.73266 18.2017C3.73266 16.9148 5.14843 14.6608 7.57072 12.0912C8.94642 10.6319 10.8627 8.92132 11.0699 8.96764C11.4727 9.05767 14.6936 12.1977 15.8993 13.6758C17.806 16.0132 18.6826 17.9271 18.2373 18.7803C17.8988 19.4289 15.7983 20.6966 14.2551 21.1836C12.9833 21.585 11.3129 21.7552 9.93695 21.6234ZM2.11512 16.8637C1.11992 15.3377 0.617109 13.8355 0.37435 11.6627C0.29419 10.9452 0.322915 10.5348 0.556372 9.06223C0.847342 7.22683 1.89314 5.10352 3.14977 3.79678C3.68498 3.24024 3.73278 3.22668 4.38516 3.44633C5.1774 3.71307 6.02345 4.29706 7.33555 5.48286L8.1011 6.17471L7.68305 6.68801C5.74247 9.07072 3.6939 12.4481 2.92186 14.5377C2.50215 15.6736 2.33286 16.8139 2.51345 17.2886C2.63538 17.6091 2.52339 17.4897 2.11512 16.8637ZM19.584 17.1232C19.6823 16.6435 19.558 15.7626 19.2666 14.874C18.6354 12.9498 16.5258 9.37002 14.5886 6.93613L13.9788 6.16995L14.6385 5.56448C15.5 4.77392 16.0981 4.30055 16.7434 3.89855C17.2526 3.58132 17.9804 3.30049 18.2932 3.30049C18.486 3.30049 19.165 4.00471 19.7131 4.77324C20.562 5.96354 21.1865 7.40644 21.5029 8.90851C21.7073 9.87904 21.7244 11.9565 21.5358 12.9247C21.3811 13.7192 21.0544 14.7498 20.7357 15.4488C20.4969 15.9725 19.903 16.9896 19.6427 17.3206C19.5089 17.4908 19.5088 17.4904 19.584 17.1232ZM10.1129 2.93713C9.21907 2.48348 7.84018 1.99652 7.07848 1.86551C6.81145 1.81958 6.35593 1.79396 6.06622 1.80859C5.43776 1.8403 5.46583 1.80746 6.47401 1.3314C7.31219 0.935622 8.01134 0.702884 8.96046 0.503706C10.0281 0.279644 12.035 0.277015 13.0857 0.4983C14.2205 0.737308 15.5568 1.23432 16.3098 1.69745L16.5336 1.8351L16.0201 1.80918C14.9998 1.75769 13.5128 2.16968 11.9162 2.94621C11.4347 3.18043 11.0157 3.3675 10.9853 3.36191C10.9548 3.35633 10.5622 3.16518 10.1129 2.93713Z" fill="white"></path></svg>