<svg xmlns="http://www.w3.org/2000/svg" viewBox="0 0 420 2" preserveAspectRatio="none"><path fill="#3F3F3F" d="M420 1.2V.4c-1 0-1.8.5-2.8.6-1.1.1-2.4-.4-3.5-.5-2-.2-4.2 0-6.2 0h-12.3c-1 0-1.9 0-2.9.1-.9.1-1.8 0-2.8 0-1.8.1-3.6 0-5.5 0-2.1 0-4.2-.2-6.4-.1-1 .1-2.1 0-3.1 0-1.2 0-2.3.1-3.4.1-2 0-3.9-.2-5.8-.2-.9 0-1.8-.1-2.7-.1-1.1.1-2.2.1-3.3.1-2.3 0-4.6-.1-6.9-.1-1 0-1.9-.1-2.9-.1s-2.1.1-3.1.1c-1.8 0-3.5-.1-5.3-.1-.9 0-1.8.1-2.7-.1-.4-.1-.8-.1-1.3-.1-.6.1-1.2 0-1.7 0-2.2 0-4.4-.2-6.5 0-2.1.2-4.2-.1-6.4-.1-4.5.1-9.1.1-13.6.2-4.7.1-9.4-.2-14-.1-1.9 0-3.8-.2-5.7-.1-2.2.1-4.3.1-6.5.2-4.7.2-9.5-.1-14.2-.1-4.9 0-9.7-.1-14.6-.1-4.7 0-9.5.2-14.2.1-4.5 0-9-.1-13.5-.1-4.3 0-8.7-.1-13-.1-8.4.1-16.8 0-25.2.1-8.7.1-17.5-.1-26.2 0h-2.9c-1.3 0 .1.4.5.7-.6 0-1.5-.1-2.2-.4.2 0 .4-.1.6-.1-3.1-.3-6.4-.3-9.5-.1-2.7.1-5.3 0-8 0-1.3 0-2.7.1-4 .1-1.2 0-2.4-.1-3.7-.1-2.5 0-5 .1-7.5.1h-11.4c-.7 0-1.3.2-2 .3-.6 0-1.1-.3-1.8-.3h-7.4c-.7 0-1.4 0-2.1.1-.4.1-.5 0-.8-.1-.6-.1-1.4 0-2.2.1-1.3.1-2.6.1-3.9.1-1.3 0-2.6.1-3.9.1-.6 0-1.7-.2-2.2 0-.1.1-.3.3-.4.3-.3.1-.4-.2-.7-.3-.5-.2-1.2-.1-1.7-.1h-2.3c-1.4 0-2.9-.1-4.4 0-2.9.2-5.8 0-8.7 0-1.3 0-2.6.1-3.9.1h-1.9c-.2 0-.9-.1-1.1 0-.2.1-.3.4-.6.5-.5.1-1.3-.4-1.7-.5-.5-.1-1 0-1.5 0-.8.1-1.9 0-2.7.4-.1 0-.1.2-.4.2-.3.1-.8-.1-1.2-.2-1-.2-1.9-.4-2.9-.4-1.4 0-2.8.1-4.2.3-1.4.2-2.7-.2-4.1-.3-1.3-.1-2.6.3-4 .1-1.5-.1-2.9-.4-4.4-.3-1.8.1-3.6.3-5.3.5-.8.1-1.7.3-2.5.2-.7-.1-1.3-.5-2-.5s-1.4.2-2.2.2c-.7 0-1.3-.2-2-.2s-1.4.3-2.1.3c-.7 0-1.5-.1-2.3-.2-.9-.1-1.7-.1-2.6-.1-.5 0-.5-.1-.8.2-.1.1-.3.5-.5.5s-.6-.6-.8-.7C11.1.2 10.2.3 9.7.3c-1.7 0-3.3.2-5 0C3.8.2 3 .3 2.2.3 1.5.6.8.5.1.5c0 .2-.1 1 0 1.1.2.3 1.9 0 2.3 0H8c4 .1 8 .1 12 .1h31.8c1.8 0 3.7.2 5.5.1.8 0 1.5-.4 2.3-.2.8.1 1.6.1 2.4.1h2.2c.9 0 1.7-.2 2.6-.3.9 0 1.7.3 2.6.3h3c2 0 3.9-.1 5.8-.3 2.1-.2 4.1.2 6.1.2.6 0 1.3-.5 1.9-.4.3 0 .5.3.8.3.4.1 1 0 1.4 0 1.8 0 3.8.4 5.4-.1.6-.2 1 .1 1.7.2h2.3c3.9 0 7.8-.1 11.7-.1 2.8 0 5.6-.2 8.4 0 2.4.2 4.7-.2 7.1 0 2.9.2 5.9 0 8.9 0 1.9 0 3.9-.1 5.8-.2s3.8.2 5.6.2c1 0 1.9-.1 2.9-.1.5 0 1-.1 1.6-.1.5 0 1 .2 1.5.1 1.6-.1 3.3-.2 5-.2 3.4.2 6.8 0 10.3 0 7.8 0 15.7 0 23.5-.1h17.7c6.2 0 12.4-.4 18.6 0 .8 0 1.5.1 2.3 0 .9-.1 1.8.1 2.7.1 1.9-.1 3.7-.1 5.6-.1 3.7 0 7.4.1 11.1.1 2.7 0 5.4.1 8.1 0 3.8-.2 7.6.3 11.5.2 3.3-.1 6.6.1 9.9.1.9 0 1.9-.1 2.8-.1 1 0 2.1.1 3.1.1 2.1 0 4.1 0 6.2-.1 3.1-.1 6.3.2 9.4 0 1.4-.1 2.9-.6 4.3-.6 1.8 0 3.6.6 5.4.6 2.5-.1 5.1.1 7.7 0 1.5-.1 3-.4 4.5-.5.4 0 1-.2 1.4-.1.3.1.5.3.8.5.7.4 1.8.2 2.6.2 3.9 0 7.8-.3 11.7 0 1.8.1 3.7.2 5.4.1 1.6-.1 3.1 0 4.7 0h6.1c1.7 0 3.5 0 5.2.1.8.1 1.7 0 2.5 0 .9 0 1.7.1 2.6.1 1.7 0 3.3-.1 5 0 7.9.2 15.7.1 23.6.1 8-.1 16 .1 24 0 1 0 1.9 0 2.9-.2.3 0 .6 0 .5-.4-.1-.3-.4-.1-.7-.1-.6 0-1 0-1.6.3-.4.2-.9.5-1.4.5.6-1.3 2.6-1 3.7-.8zM38.7 1.1c-.3 0-.4-.1-.7-.2.3 0 .7-.2.7.2zM90.6.7c.1.2-.7 0-.8.1 0 .1-.1.6 0 .7-.4 0-.4-.7-.9-.6 0 0-.4.3-.5.3-.2 0-.4-.4-.7-.5.6-.1 1-.7 1.6-.8.6-.1 1.1.5 1.7.6-.3 0-.6.1-.9.1.1.1.3.1.5.1zm262.3.5c-1.2 0-2.3-.4-3.5-.5.8-.1 1.7 0 2.4 0 .8.1 1.6-.1 2.4-.1h2.2c.7 0 .9.1 1.3.7-1.5.1-3.1-.1-4.8-.1zm8.5.3c-.4-.1-.2-.6-.5-.6.6-.1 1.5-.4 2.1-.2-.5.2-1 .6-1.6.8zm13.1.1c-1 0-2-.3-3-.4-1.2-.2-2.4-.1-3.5-.1-1.8 0-3.6.5-5.4.4l1.2-.6c.6-.2 1.2-.2 1.8-.1 1.2 0 2.8.2 3.8.2h1.1c.1 0 .3-.1.4-.1.2-.1.3-.1.4.1.7.1 1.4 0 2.1 0h2.4c.3 0 2 0 2.1.2-1.3-.1-2.3.4-3.4.4zm10.7-.1c.5-.2 1.1-.7 1.6-.5.4.2.7.7 1.2 1-.8.1-2-.3-2.8-.5zm25.2.5c-1.9 0-3.7-.8-5.6-.8h-1.7c-.4 0-.9-.2-1.3-.1-.3.1-.8.7-1 .7-.3-.1 0-.6-.2-.7.2 0 1.7.1.8-.2.7 0 .9-.1 1.5-.1-.1 0-.2.1-.4.1 1.7 0 3.4.1 5.1.1.5 0 1.7-.2 2.1.1.2.1.7.7.7.9z"/></svg>