<svg width="32" height="33" viewBox="0 0 32 33" fill="none" xmlns="http://www.w3.org/2000/svg">
    <path
        d="M21.8654 5.91211H10.132C7.48083 5.91211 5.33203 8.06091 5.33203 10.7121V22.4454C5.33203 25.0966 7.48083 27.2454 10.132 27.2454H21.8654C24.5166 27.2454 26.6654 25.0966 26.6654 22.4454V10.7121C26.6654 8.06091 24.5166 5.91211 21.8654 5.91211ZM23.0334 14.5809C23.38 14.4321 23.7907 14.4118 24.1374 14.5164C24.2814 14.5612 24.4094 14.6209 24.532 14.695V15.351C24.148 15.0876 23.7054 15.0129 23.364 15.1969C23.0014 15.3958 22.788 15.8129 22.7987 16.2502C22.7934 16.7324 22.9534 17.1793 23.2894 17.3878C23.588 17.5916 24.0574 17.5916 24.532 17.5169V18.0636C24.3454 18.1233 24.148 18.158 23.9454 18.1777C23.6094 18.2028 23.236 18.1526 22.9054 17.974C22.5694 17.8001 22.324 17.4972 22.1854 17.1937C22.052 16.8806 22.004 16.5628 21.9987 16.2593C21.9827 15.614 22.3294 14.8886 23.0334 14.5809ZM20.7987 12.8508C21.0931 12.8508 21.332 13.0897 21.332 13.3841C21.332 13.6785 21.0931 13.9174 20.7987 13.9174C20.5043 13.9174 20.2654 13.6785 20.2654 13.3841C20.2654 13.0897 20.5043 12.8508 20.7987 12.8508ZM21.1987 14.4508V18.1841H20.3987V14.4508H21.1987ZM17.0654 17.2054C17.4067 17.3446 17.8227 17.4892 18.148 17.5201C18.4734 17.5564 18.8307 17.5148 19.0387 17.4012C19.14 17.3393 19.1614 17.2529 19.1614 17.1569C19.1614 17.0609 19.1422 17.0065 19.0958 16.9345C19.011 16.8033 18.7774 16.7041 18.4094 16.6161C18.228 16.5644 18.0307 16.5126 17.812 16.3942C17.5934 16.2961 17.1491 15.9398 17.2355 15.3324C17.2819 15.0076 17.6184 14.6897 18.0894 14.5414C18.6382 14.3681 19.236 14.454 19.732 14.6913V15.3521C19.2894 15.1249 18.7614 15.0102 18.3134 15.1596C18.18 15.2006 18.004 15.2934 18.004 15.4604C18.004 15.8609 18.468 15.9366 18.644 15.9937C18.8254 16.0502 19.0227 16.102 19.236 16.2102C19.4494 16.3137 19.8771 16.5718 19.8771 17.1612C19.8771 17.7254 19.5987 17.9329 19.3694 18.0257C18.8947 18.2321 18.4734 18.1958 18.0627 18.1393C17.716 18.0774 17.38 17.974 17.0654 17.7782V17.2054ZM13.4654 14.4518L14.2654 14.4508L14.267 15.7414C14.2744 16.1628 14.2734 16.622 14.2686 17.0124C14.2499 17.2209 14.483 17.4641 14.7891 17.5014C14.9523 17.5196 15.0739 17.5062 15.2616 17.4268C15.3726 17.383 15.4856 17.3457 15.5987 17.3068V14.4508L16.3987 14.4513V18.0876H15.5987V17.9617C15.5768 17.9734 15.556 17.9862 15.5347 17.9974C15.3315 18.119 15.0056 18.2033 14.7272 18.1804C14.4382 18.1617 14.147 18.0604 13.9096 17.8678C13.6739 17.678 13.4958 17.3798 13.4728 17.0524C13.4584 16.583 13.4622 16.1809 13.467 15.742L13.4654 14.4518ZM7.5987 14.4508H8.3987V14.8177C8.59603 14.7462 8.79176 14.6716 8.99016 14.6038C9.2755 14.5025 9.63336 14.5228 9.91443 14.679C10.0307 14.7414 10.1326 14.8294 10.2222 14.9292C10.5219 14.8182 10.8211 14.7068 11.123 14.6033C11.4083 14.502 11.7662 14.5222 12.0472 14.6785C12.331 14.831 12.5518 15.11 12.6302 15.4348C12.651 15.5158 12.66 15.598 12.6648 15.6806L12.667 15.8497L12.6702 16.183L12.667 16.8497L12.6654 18.183H11.8654L11.8622 15.5996C11.8398 15.3729 11.5854 15.1745 11.3187 15.247C11.0467 15.319 10.7726 15.383 10.499 15.4492C10.5171 15.5254 10.5267 15.6022 10.5315 15.6801L10.5336 15.8492L10.5368 16.1825L10.5336 16.8492L10.532 18.1825H9.73203L9.72883 15.599C9.70643 15.3718 9.45203 15.174 9.18536 15.2465C8.92457 15.3158 8.6611 15.3772 8.3987 15.4406V18.182H7.5987V14.4508ZM23.3416 21.3425C22.1608 22.1798 20.8414 22.7318 19.4563 23.0902C18.0723 23.4438 16.6312 23.5777 15.1971 23.479C13.7635 23.383 12.3635 23.0332 11.044 22.5222C9.72883 21.9942 8.48563 21.3153 7.38696 20.4257C7.3299 20.3793 7.32083 20.295 7.36723 20.238C7.4083 20.1873 7.4787 20.1745 7.53416 20.2044L7.54163 20.2086C8.7411 20.8577 10.0232 21.3548 11.3107 21.7494C12.6083 22.1185 13.9288 22.3825 15.2574 22.4364C16.5827 22.4828 17.9224 22.3793 19.2302 22.1073C20.5326 21.8385 21.8462 21.4481 23.0542 20.8918L23.075 20.8822C23.2088 20.8209 23.3667 20.879 23.4286 21.0129C23.484 21.1318 23.4446 21.27 23.3416 21.3425ZM23.9358 22.9212C23.7875 23.0332 23.6392 22.9958 23.7134 22.8092C23.9358 22.2118 24.4174 20.942 24.195 20.6433C23.9358 20.3073 22.6019 20.494 22.0094 20.5686C21.8243 20.5686 21.8243 20.4193 21.9726 20.3073C22.491 19.934 23.195 19.7846 23.788 19.7846C24.3806 19.7846 24.8995 19.8966 25.0104 20.0833C25.195 20.3068 24.9358 22.062 23.9358 22.9212Z"
        fill="#a7b6e3" />
</svg>