<svg width="32" height="33" viewBox="0 0 32 33" fill="none" xmlns="http://www.w3.org/2000/svg">
    <path
        d="M26.9193 22.7235C26.9193 22.81 26.4009 24.628 25.1047 26.5326C23.9813 28.1774 22.8579 29.7357 21.0432 29.8222C19.2286 29.8222 18.7101 28.7834 16.6362 28.7834C14.5623 28.7834 13.9574 29.8222 12.3155 29.9088C10.5873 29.9954 9.20464 28.1774 8.16769 26.5326C5.83453 23.1563 4.10627 17.0964 6.43942 13.0276C7.56279 11.0365 9.63671 9.7379 11.8835 9.7379C13.6117 9.7379 15.2536 10.8633 16.2905 10.8633C17.3275 10.8633 19.315 9.47819 21.3889 9.65133C22.253 9.65133 24.6726 9.99761 26.228 12.2484C26.1416 12.335 23.29 13.9799 23.3764 17.2695C23.3764 21.3383 26.8329 22.7235 26.9193 22.7235ZM20.0063 7.48707C20.9568 6.36165 21.5617 4.80338 21.3889 3.24512C20.0927 3.33169 18.4508 4.11082 17.5003 5.23624C16.6362 6.18851 15.8585 7.83335 16.1177 9.30505C17.5867 9.47819 19.0557 8.61248 20.0063 7.48707Z"
        fill="#a7b6e3" />
</svg>