<svg width="32" height="33" viewBox="0 0 32 33" fill="#a7b6e3" xmlns="http://www.w3.org/2000/svg">
    <path fill-rule="evenodd" clip-rule="evenodd"
        d="M24.1288 8.24067C24.3509 6.95372 24.6767 6.14473 25.038 6.143H25.0389C25.7122 6.1456 26.2576 8.95199 26.2576 12.417C26.2576 15.882 25.7113 18.691 25.0372 18.691C24.7606 18.691 24.5065 18.2139 24.3008 17.4144C23.9767 20.3401 23.3034 22.3513 22.5246 22.3513C21.9222 22.3513 21.3812 21.143 21.0182 19.2381C20.7701 22.8612 20.1461 25.4325 19.4166 25.4325C18.9585 25.4325 18.5411 24.4135 18.2325 22.7549C17.8608 26.1793 17.0026 28.5786 16.0017 28.5786C15.0009 28.5786 14.1409 26.1802 13.771 22.7549C13.4641 24.4135 13.0467 25.4325 12.5869 25.4325C11.8574 25.4325 11.2351 22.8621 10.9853 19.2381C10.6223 21.143 10.083 22.3513 9.47882 22.3513C8.70095 22.3513 8.02679 20.3409 7.70268 17.4144C7.4987 18.2156 7.24287 18.6901 6.96629 18.6901C6.293 18.6901 5.74589 15.8811 5.74589 12.4161C5.74589 8.95113 6.29213 6.14214 6.96629 6.14214C7.32757 6.14214 7.65169 6.95372 7.87554 8.2398C8.23509 6.02114 8.8185 4.57861 9.47882 4.57861C10.2627 4.57861 10.9412 6.61837 11.2627 9.58034C11.5774 7.42477 12.0536 6.05052 12.5877 6.05052C13.3362 6.05052 13.9723 8.7532 14.2083 12.5242C14.6517 10.5907 15.293 9.37809 16.0035 9.37809C16.7139 9.37809 17.3552 10.5916 17.7978 12.5242C18.0346 8.75407 18.6698 6.05052 19.4183 6.05052C19.9516 6.05052 20.4278 7.42477 20.7433 9.58034C21.064 6.61837 21.7433 4.57861 22.5264 4.57861C23.1832 4.57948 23.7692 6.022 24.1288 8.24067ZM4 11.7999C4 10.251 4.30942 8.99521 4.69231 8.99521C5.07433 8.99521 5.38462 10.251 5.38462 11.7999C5.38462 13.3487 5.07519 14.6045 4.69231 14.6045C4.31029 14.6045 4 13.3487 4 11.7999ZM26.6154 11.7999C26.6154 10.251 26.9248 8.99521 27.3077 8.99521C27.6897 8.99521 28 10.251 28 11.7999C28 13.3487 27.6906 14.6045 27.3077 14.6045C26.9248 14.6045 26.6154 13.3487 26.6154 11.7999Z"
    />
</svg>