<svg width="32" height="33" viewBox="0 0 32 33" fill="none" xmlns="http://www.w3.org/2000/svg">
    <path fill-rule="evenodd" clip-rule="evenodd"
        d="M23.098 15.2166C19.23 12.9196 12.85 12.7086 9.157 13.8296C8.564 14.0096 7.937 13.6746 7.758 13.0816C7.578 12.4886 7.912 11.8616 8.506 11.6816C12.745 10.3946 19.791 10.6436 24.244 13.2866C24.777 13.6036 24.952 14.2916 24.636 14.8246C24.32 15.3576 23.631 15.5336 23.098 15.2166ZM22.972 18.6196C22.7 19.0596 22.125 19.1976 21.685 18.9276C18.46 16.9456 13.543 16.3706 9.727 17.5286C9.233 17.6786 8.71 17.3996 8.56 16.9056C8.411 16.4106 8.69 15.8896 9.184 15.7386C13.542 14.4166 18.96 15.0566 22.664 17.3336C23.104 17.6036 23.242 18.1806 22.972 18.6196ZM21.503 21.8866C21.288 22.2406 20.827 22.3516 20.475 22.1356C17.657 20.4136 14.11 20.0246 9.933 20.9786C9.531 21.0706 9.13 20.8186 9.038 20.4166C8.946 20.0136 9.197 19.6126 9.6 19.5206C14.171 18.4756 18.092 18.9256 21.255 20.8586C21.608 21.0736 21.719 21.5346 21.503 21.8866ZM16 4.57861C9.373 4.57861 4 9.95161 4 16.5786C4 23.2066 9.373 28.5786 16 28.5786C22.628 28.5786 28 23.2066 28 16.5786C28 9.95161 22.628 4.57861 16 4.57861Z"
        fill="#a7b6e3" />
</svg>