<svg width="32" height="33" viewBox="0 0 32 33" fill="none" xmlns="http://www.w3.org/2000/svg">
    <g clip-path="url(#clip0_18921_247001)">
        <path fill-rule="evenodd" clip-rule="evenodd"
            d="M28.1896 11.6022C28.1896 11.6022 27.9466 9.88667 27.1988 9.13336C26.2512 8.1426 25.1902 8.13626 24.7052 8.07876C21.225 7.8252 15.998 7.8252 15.998 7.8252H15.9889C15.9889 7.8252 10.7642 7.8252 7.28213 8.07876C6.79515 8.13797 5.73563 8.14208 4.78848 9.13336C4.04017 9.88667 3.80236 11.6022 3.80236 11.6022C3.80236 11.6022 3.55469 13.6154 3.55469 15.6328V17.5193C3.55469 19.5324 3.80221 21.5497 3.80221 21.5497C3.80221 21.5497 4.04517 23.2652 4.78833 24.0198C5.73548 25.0106 6.98025 24.9784 7.53592 25.0841C9.5284 25.2743 15.9997 25.3316 15.9997 25.3316C15.9997 25.3316 21.2312 25.3224 24.7114 25.0735C25.1984 25.016 26.2575 25.0102 27.2051 24.0189C27.9533 23.2656 28.1958 21.5482 28.1958 21.5482C28.1958 21.5482 28.4436 19.535 28.4436 17.5178V15.6315C28.4386 13.6183 28.191 11.601 28.191 11.601L28.1896 11.6024L28.1895 11.6022H28.1896ZM13.42 19.8079V12.813L20.1434 16.3221L13.42 19.8079Z"
            fill="#a7b6e3" />
    </g>
    <defs>
        <clipPath id="clip0_18921_247001">
            <rect width="24.8889" height="18.6667" fill="white"
                transform="translate(3.55469 7.24512)" />
        </clipPath>
    </defs>
</svg>